<svg xmlns="http://www.w3.org/2000/svg" xmlns:xlink="http://www.w3.org/1999/xlink" contentStyleType="text/css" data-diagram-type="STATE" height="2125px" preserveAspectRatio="none" style="width:1088px;height:2125px;background:#000000;" version="1.1" viewBox="0 0 1088 2125" width="1088px" zoomAndPan="magnify"><defs/><g><!--cluster Cortext--><g class="cluster" data-entity="Cortext" data-source-line="5" data-uid="ent0002" id="cluster_Cortext"><path d="M19.5,121 L744.5,121 A12.5,12.5 0 0 1 757,133.5 L757,142.4883 L7,142.4883 L7,133.5 A12.5,12.5 0 0 1 19.5,121" fill="#0E0E0E"/><rect fill="none" height="1998.52" rx="12.5" ry="12.5" style="stroke:#E7E7E7;stroke-width:0.5;" width="750" x="7" y="121"/><line style="stroke:#E7E7E7;stroke-width:0.5;" x1="7" x2="757" y1="142.4883" y2="142.4883"/><text fill="#FFFFFF" font-family="sans-serif" font-size="14" lengthAdjust="spacing" textLength="50.873" x="356.5635" y="139.5352">Cortext</text></g><!--cluster PrefrontalCortex--><g class="cluster" data-entity="PrefrontalCortex" data-source-line="24" data-uid="ent0010" id="cluster_PrefrontalCortex"><path d="M51.5,581.86 L526.5,581.86 A12.5,12.5 0 0 1 539,594.36 L539,603.3483 L39,603.3483 L39,594.36 A12.5,12.5 0 0 1 51.5,581.86" fill="#0E0E0E"/><rect fill="none" height="1505.66" rx="12.5" ry="12.5" style="stroke:#E7E7E7;stroke-width:0.5;" width="500" x="39" y="581.86"/><line style="stroke:#E7E7E7;stroke-width:0.5;" x1="39" x2="539" y1="603.3483" y2="603.3483"/><text fill="#FFFFFF" font-family="sans-serif" font-size="14" lengthAdjust="spacing" textLength="112.082" x="232.959" y="599.3952">PrefrontalCortex</text></g><!--cluster Hippocampus--><g class="cluster" data-entity="Hippocampus" data-source-line="27" data-uid="ent0011" id="cluster_Hippocampus"><path d="M91.5,699.86 L478.5,699.86 A12.5,12.5 0 0 1 491,712.36 L491,721.3483 L79,721.3483 L79,712.36 A12.5,12.5 0 0 1 91.5,699.86" fill="#0E0E0E"/><rect fill="none" height="958.73" rx="12.5" ry="12.5" style="stroke:#E7E7E7;stroke-width:0.5;" width="412" x="79" y="699.86"/><line style="stroke:#E7E7E7;stroke-width:0.5;" x1="79" x2="491" y1="721.3483" y2="721.3483"/><text fill="#FFFFFF" font-family="sans-serif" font-size="14" lengthAdjust="spacing" textLength="93.167" x="238.4165" y="717.3952">Hippocampus</text></g><text fill="#FFFFFF" font-family="sans-serif" font-size="14" lengthAdjust="spacing" textLength="35.458" x="390.271" y="100.0469">Input</text><ellipse cx="408" cy="121" fill="#0E0E0E" rx="6" ry="6" style="stroke:#E7E7E7;stroke-width:1.5;"/><text fill="#FFFFFF" font-family="sans-serif" font-size="14" lengthAdjust="spacing" textLength="80.3838" x="558.1381" y="100.0469">Consolidate</text><ellipse cx="598.33" cy="121" fill="#0E0E0E" rx="6" ry="6" style="stroke:#E7E7E7;stroke-width:1.5;"/><g class="entity" data-entity="ModalityCheck" data-uid="ent0005" id="entity_ModalityCheck"><polygon fill="#0E0E0E" points="408,218.31,420,230.31,408,242.31,396,230.31,408,218.31" style="stroke:#E7E7E7;stroke-width:0.5;"/></g><g id="Cortext.ConsolidationProcess"><rect fill="#0E0E0E" height="50.6211" rx="12.5" ry="12.5" style="stroke:#E7E7E7;stroke-width:0.5;" width="244.8945" x="480.55" y="205"/><line style="stroke:#E7E7E7;stroke-width:0.5;" x1="480.55" x2="725.4445" y1="231.4883" y2="231.4883"/><text fill="#FFFFFF" font-family="sans-serif" font-size="14" lengthAdjust="spacing" textLength="145.2295" x="530.3825" y="223.5352">ConsolidationProcess</text><text fill="#FFFFFF" font-family="sans-serif" font-size="12" lengthAdjust="spacing" textLength="224.8945" x="485.55" y="248.0898">entry / cluster &amp; summarize memories</text></g><g id="Cortext.VisualCortex"><rect fill="#0E0E0E" height="50.6211" rx="12.5" ry="12.5" style="stroke:#E7E7E7;stroke-width:0.5;" width="182.4395" x="287.78" y="332.62"/><line style="stroke:#E7E7E7;stroke-width:0.5;" x1="287.78" x2="470.2195" y1="359.1083" y2="359.1083"/><text fill="#FFFFFF" font-family="sans-serif" font-size="14" lengthAdjust="spacing" textLength="86.4404" x="335.7795" y="351.1552">VisualCortex</text><text fill="#FFFFFF" font-family="sans-serif" font-size="12" lengthAdjust="spacing" textLength="162.4395" x="292.78" y="375.7098">entry / encode vision &amp; text</text></g><g id="Cortext.AudioCortex"><rect fill="#0E0E0E" height="50.6211" rx="12.5" ry="12.5" style="stroke:#E7E7E7;stroke-width:0.5;" width="141.8398" x="505.08" y="332.62"/><line style="stroke:#E7E7E7;stroke-width:0.5;" x1="505.08" x2="646.9198" y1="359.1083" y2="359.1083"/><text fill="#FFFFFF" font-family="sans-serif" font-size="14" lengthAdjust="spacing" textLength="85.4424" x="533.2787" y="351.1552">AudioCortex</text><text fill="#FFFFFF" font-family="sans-serif" font-size="12" lengthAdjust="spacing" textLength="121.8398" x="510.08" y="375.7098">entry / encode audio</text></g><g id="Cortext.Amygdala"><rect fill="#0E0E0E" height="50.6211" rx="12.5" ry="12.5" style="stroke:#E7E7E7;stroke-width:0.5;" width="293.1523" x="384.42" y="460.24"/><line style="stroke:#E7E7E7;stroke-width:0.5;" x1="384.42" x2="677.5723" y1="486.7283" y2="486.7283"/><text fill="#FFFFFF" font-family="sans-serif" font-size="14" lengthAdjust="spacing" textLength="67.0947" x="497.4488" y="478.7752">Amygdala</text><text fill="#FFFFFF" font-family="sans-serif" font-size="12" lengthAdjust="spacing" textLength="273.1523" x="389.42" y="503.3298">entry / project embedding onto emotion space</text></g><g id="Cortext.Neocortex"><rect fill="#0E0E0E" height="50.6211" rx="12.5" ry="12.5" style="stroke:#E7E7E7;stroke-width:0.5;" width="178.918" x="562.54" y="2027.21"/><line style="stroke:#E7E7E7;stroke-width:0.5;" x1="562.54" x2="741.458" y1="2053.6983" y2="2053.6983"/><text fill="#FFFFFF" font-family="sans-serif" font-size="14" lengthAdjust="spacing" textLength="69.8633" x="617.0673" y="2045.7452">Neocortex</text><text fill="#FFFFFF" font-family="sans-serif" font-size="12" lengthAdjust="spacing" textLength="158.918" x="567.54" y="2070.2998">long-term memory storage</text></g><g class="entity" data-entity="IsFull" data-uid="ent0021" id="entity_IsFull"><polygon fill="#0E0E0E" points="197,1713.59,209,1725.59,197,1737.59,185,1725.59,197,1713.59" style="stroke:#E7E7E7;stroke-width:0.5;"/></g><g id="Cortext.PrefrontalCortex.EvictMemory"><rect fill="#0E0E0E" height="50.6211" rx="12.5" ry="12.5" style="stroke:#E7E7E7;stroke-width:0.5;" width="181.6074" x="80.2" y="1814.59"/><line style="stroke:#E7E7E7;stroke-width:0.5;" x1="80.2" x2="261.8074" y1="1841.0783" y2="1841.0783"/><text fill="#FFFFFF" font-family="sans-serif" font-size="14" lengthAdjust="spacing" textLength="85.8594" x="128.074" y="1833.1252">EvictMemory</text><text fill="#FFFFFF" font-family="sans-serif" font-size="12" lengthAdjust="spacing" textLength="161.6074" x="85.2" y="1857.6798">entry / evict oldest memory</text></g><g class="entity" data-entity="IsLongTerm" data-uid="ent0023" id="entity_IsLongTerm"><polygon fill="#0E0E0E" points="313,1926.21,325,1938.21,313,1950.21,301,1938.21,313,1926.21" style="stroke:#E7E7E7;stroke-width:0.5;"/></g><g id="Cortext.PrefrontalCortex.Store"><rect fill="#0E0E0E" height="50.6211" rx="12.5" ry="12.5" style="stroke:#E7E7E7;stroke-width:0.5;" width="210.1484" x="296.93" y="1814.59"/><line style="stroke:#E7E7E7;stroke-width:0.5;" x1="296.93" x2="507.0784" y1="1841.0783" y2="1841.0783"/><text fill="#FFFFFF" font-family="sans-serif" font-size="14" lengthAdjust="spacing" textLength="34.9043" x="384.5521" y="1833.1252">Store</text><text fill="#FFFFFF" font-family="sans-serif" font-size="12" lengthAdjust="spacing" textLength="190.1484" x="301.93" y="1857.6798">entry / store in working memory</text></g><ellipse cx="483" cy="634.86" fill="#DDDDDD" rx="10" ry="10" style="stroke:#DDDDDD;stroke-width:1;"/><ellipse cx="313" cy="2052.52" fill="none" rx="11" ry="11" style="stroke:#DDDDDD;stroke-width:1;"/><ellipse cx="313" cy="2052.52" fill="#DDDDDD" rx="6" ry="6" style="stroke:#DDDDDD;stroke-width:1;"/><g class="entity" data-entity="CentroidCheck" data-uid="ent0012" id="entity_CentroidCheck"><polygon fill="#0E0E0E" points="270,823.86,282,835.86,270,847.86,258,835.86,270,823.86" style="stroke:#E7E7E7;stroke-width:0.5;"/></g><g id="Cortext.PrefrontalCortex.Hippocampus.AssignCentroid"><rect fill="#0E0E0E" height="50.6211" rx="12.5" ry="12.5" style="stroke:#E7E7E7;stroke-width:0.5;" width="165.0254" x="103.49" y="924.86"/><line style="stroke:#E7E7E7;stroke-width:0.5;" x1="103.49" x2="268.5154" y1="951.3483" y2="951.3483"/><text fill="#FFFFFF" font-family="sans-serif" font-size="14" lengthAdjust="spacing" textLength="103.9951" x="134.0051" y="943.3952">AssignCentroid</text><text fill="#FFFFFF" font-family="sans-serif" font-size="12" lengthAdjust="spacing" textLength="145.0254" x="108.49" y="967.9498">entry / initialize centroid</text></g><g id="Cortext.PrefrontalCortex.Hippocampus.ComputeCentroid"><rect fill="#0E0E0E" height="50.6211" rx="12.5" ry="12.5" style="stroke:#E7E7E7;stroke-width:0.5;" width="155.9082" x="303.05" y="924.86"/><line style="stroke:#E7E7E7;stroke-width:0.5;" x1="303.05" x2="458.9582" y1="951.3483" y2="951.3483"/><text fill="#FFFFFF" font-family="sans-serif" font-size="14" lengthAdjust="spacing" textLength="120.4902" x="320.759" y="943.3952">ComputeCentroid</text><text fill="#FFFFFF" font-family="sans-serif" font-size="12" lengthAdjust="spacing" textLength="135.9082" x="308.05" y="967.9498">entry / update centroid</text></g><g id="Cortext.PrefrontalCortex.Hippocampus.ComputeDistances"><rect fill="#0E0E0E" height="50.6211" rx="12.5" ry="12.5" style="stroke:#E7E7E7;stroke-width:0.5;" width="173.0293" x="194.49" y="1036.48"/><line style="stroke:#E7E7E7;stroke-width:0.5;" x1="194.49" x2="367.5193" y1="1062.9683" y2="1062.9683"/><text fill="#FFFFFF" font-family="sans-serif" font-size="14" lengthAdjust="spacing" textLength="127.3262" x="217.3416" y="1055.0152">ComputeDistances</text><text fill="#FFFFFF" font-family="sans-serif" font-size="12" lengthAdjust="spacing" textLength="153.0293" x="199.49" y="1079.5698">entry / compute distances</text></g><g id="Cortext.PrefrontalCortex.Hippocampus.ComputeDrift"><rect fill="#0E0E0E" height="50.6211" rx="12.5" ry="12.5" style="stroke:#E7E7E7;stroke-width:0.5;" width="143.2109" x="209.39" y="1148.1"/><line style="stroke:#E7E7E7;stroke-width:0.5;" x1="209.39" x2="352.6009" y1="1174.5883" y2="1174.5883"/><text fill="#FFFFFF" font-family="sans-serif" font-size="14" lengthAdjust="spacing" textLength="92.5381" x="234.7264" y="1166.6352">ComputeDrift</text><text fill="#FFFFFF" font-family="sans-serif" font-size="12" lengthAdjust="spacing" textLength="123.2109" x="214.39" y="1191.1898">entry / compute drift</text></g><g id="Cortext.PrefrontalCortex.Hippocampus.ComputeCoherence"><rect fill="#0E0E0E" height="50.6211" rx="12.5" ry="12.5" style="stroke:#E7E7E7;stroke-width:0.5;" width="177.9043" x="192.05" y="1259.73"/><line style="stroke:#E7E7E7;stroke-width:0.5;" x1="192.05" x2="369.9543" y1="1286.2183" y2="1286.2183"/><text fill="#FFFFFF" font-family="sans-serif" font-size="14" lengthAdjust="spacing" textLength="133.8545" x="214.0749" y="1278.2652">ComputeCoherence</text><text fill="#FFFFFF" font-family="sans-serif" font-size="12" lengthAdjust="spacing" textLength="157.9043" x="197.05" y="1302.8198">entry / compute coherence</text></g><g id="Cortext.PrefrontalCortex.Hippocampus.ComputeAffect"><rect fill="#0E0E0E" height="50.6211" rx="12.5" ry="12.5" style="stroke:#E7E7E7;stroke-width:0.5;" width="158.7266" x="201.64" y="1371.35"/><line style="stroke:#E7E7E7;stroke-width:0.5;" x1="201.64" x2="360.3666" y1="1397.8383" y2="1397.8383"/><text fill="#FFFFFF" font-family="sans-serif" font-size="14" lengthAdjust="spacing" textLength="102.0537" x="229.9764" y="1389.8852">ComputeAffect</text><text fill="#FFFFFF" font-family="sans-serif" font-size="12" lengthAdjust="spacing" textLength="138.7266" x="206.64" y="1414.4398">entry / aggregate affect</text></g><g id="Cortext.PrefrontalCortex.Hippocampus.ComputePersistence"><rect fill="#0E0E0E" height="50.6211" rx="12.5" ry="12.5" style="stroke:#E7E7E7;stroke-width:0.5;" width="182.0293" x="105.99" y="1583.97"/><line style="stroke:#E7E7E7;stroke-width:0.5;" x1="105.99" x2="288.0193" y1="1610.4583" y2="1610.4583"/><text fill="#FFFFFF" font-family="sans-serif" font-size="14" lengthAdjust="spacing" textLength="138.1748" x="127.9172" y="1602.5052">ComputePersistence</text><text fill="#FFFFFF" font-family="sans-serif" font-size="12" lengthAdjust="spacing" textLength="162.0293" x="110.99" y="1627.0598">entry / evaluate persistence</text></g><g class="entity" data-entity="BoundaryCheck" data-uid="ent0020" id="entity_BoundaryCheck"><polygon fill="#0E0E0E" points="281,1482.97,293,1494.97,281,1506.97,269,1494.97,281,1482.97" style="stroke:#E7E7E7;stroke-width:0.5;"/></g><ellipse cx="270" cy="752.86" fill="#DDDDDD" rx="10" ry="10" style="stroke:#DDDDDD;stroke-width:1;"/><ellipse cx="365" cy="1609.28" fill="none" rx="11" ry="11" style="stroke:#DDDDDD;stroke-width:1;"/><ellipse cx="365" cy="1609.28" fill="#DDDDDD" rx="6" ry="6" style="stroke:#DDDDDD;stroke-width:1;"/><ellipse cx="408" cy="16" fill="#DDDDDD" rx="10" ry="10" style="stroke:#DDDDDD;stroke-width:1;"/><g class="entity" data-entity="GMN2" data-source-line="85" data-uid="ent0003" id="entity_GMN2"><path d="M776.31,2039.86 L776.31,2048.52 L741.81,2052.52 L776.31,2056.52 L776.31,2065.1705 A0,0 0 0 0 776.31,2065.1705 L1081.6977,2065.1705 A0,0 0 0 0 1081.6977,2065.1705 L1081.6977,2049.86 L1071.6977,2039.86 L776.31,2039.86 A0,0 0 0 0 776.31,2039.86" fill="#050505" style="stroke:#E7E7E7;stroke-width:0.5;"/><path d="M1071.6977,2039.86 L1071.6977,2049.86 L1081.6977,2049.86 L1071.6977,2039.86" fill="#050505" style="stroke:#E7E7E7;stroke-width:0.5;"/><text fill="#FFFFFF" font-family="sans-serif" font-size="13" lengthAdjust="spacing" textLength="284.3877" x="782.31" y="2057.4284">See cortext-objects.puml for type definitions</text></g><!--link *start* to Input--><g class="link" data-entity-1=".start." data-entity-2="Input" data-source-line="3" data-uid="lnk3" id="link_.start._Input"><path d="M408,26.14 C408,47.21 408,92.64 408,108.95" fill="none" id="*start*-to-Input" style="stroke:#E7E7E7;stroke-width:1;"/><polygon fill="#E7E7E7" points="408,114.95,412,105.95,408,109.95,404,105.95,408,114.95" style="stroke:#E7E7E7;stroke-width:1;"/><text fill="#FFFFFF" font-family="sans-serif" font-size="13" lengthAdjust="spacing" textLength="70.7954" x="409" y="69.5684">InputSignal</text></g><!--link Input to ModalityCheck--><g class="link" data-entity-1="Input" data-entity-2="ModalityCheck" data-source-line="11" data-uid="lnk4" id="link_Input_ModalityCheck"><path d="M408,127.47 C408,144.21 408,189.01 408,211.91" fill="none" id="Input-to-ModalityCheck" style="stroke:#E7E7E7;stroke-width:1;"/><polygon fill="#E7E7E7" points="408,217.91,412,208.91,408,212.91,404,208.91,408,217.91" style="stroke:#E7E7E7;stroke-width:1;"/></g><!--link Consolidate to ConsolidationProcess--><g class="link" data-entity-1="Consolidate" data-entity-2="ConsolidationProcess" data-source-line="12" data-uid="lnk5" id="link_Consolidate_ConsolidationProcess"><path d="M603,126.89 C603,140.42 603,173.06 603,198.81" fill="none" id="Consolidate-to-ConsolidationProcess" style="stroke:#E7E7E7;stroke-width:1;"/><polygon fill="#E7E7E7" points="603,204.81,607,195.81,603,199.81,599,195.81,603,204.81" style="stroke:#E7E7E7;stroke-width:1;"/></g><!--link *start*PrefrontalCortex to Hippocampus--><g class="link" data-entity-1=".start.PrefrontalCortex" data-entity-2="Hippocampus" data-source-line="25" data-uid="lnk7" id="link_.start.PrefrontalCortex_Hippocampus"><path d="M483,645.35 C483,652.17 483,662.0837 483,673.1555 C483,678.6913 483,684.5167 483,690.3896 C483,693.326 483,696.2743 483,699.2043 C483,699.3874 483,693.5704 483,693.7534" fill="none" id="*start*PrefrontalCortex-to-Hippocampus" style="stroke:#E7E7E7;stroke-width:1;"/><polygon fill="#E7E7E7" points="483,699.7534,487,690.7534,483,694.7534,479,690.7534,483,699.7534" style="stroke:#E7E7E7;stroke-width:1;"/></g><!--link *start*Hippocampus to CentroidCheck--><g class="link" data-entity-1=".start.Hippocampus" data-entity-2="CentroidCheck" data-source-line="45" data-uid="lnk9" id="link_.start.Hippocampus_CentroidCheck"><path d="M270,763.15 C270,778.03 270,801.16 270,817.34" fill="none" id="*start*Hippocampus-to-CentroidCheck" style="stroke:#E7E7E7;stroke-width:1;"/><polygon fill="#E7E7E7" points="270,823.34,274,814.34,270,818.34,266,814.34,270,823.34" style="stroke:#E7E7E7;stroke-width:1;"/></g><!--link CentroidCheck to AssignCentroid--><g class="link" data-entity-1="CentroidCheck" data-entity-2="AssignCentroid" data-source-line="46" data-uid="lnk10" id="link_CentroidCheck_AssignCentroid"><path d="M261.21,839.49 C246.31,844.43 216.24,856.56 201,877.86 C191.36,891.34 188.1963,903.724 186.8763,918.434" fill="none" id="CentroidCheck-to-AssignCentroid" style="stroke:#E7E7E7;stroke-width:1;"/><polygon fill="#E7E7E7" points="186.34,924.41,191.1284,915.8035,186.7869,919.43,183.1604,915.0885,186.34,924.41" style="stroke:#E7E7E7;stroke-width:1;"/><text fill="#FFFFFF" font-family="sans-serif" font-size="13" lengthAdjust="spacing" textLength="103.8604" x="202" y="891.4284">[centroid empty]</text></g><!--link CentroidCheck to ComputeCentroid--><g class="link" data-entity-1="CentroidCheck" data-entity-2="ComputeCentroid" data-source-line="47" data-uid="lnk11" id="link_CentroidCheck_ComputeCentroid"><path d="M275.66,842.59 C290.32,857.43 326.0423,893.5725 352.3123,920.1525" fill="none" id="CentroidCheck-to-ComputeCentroid" style="stroke:#E7E7E7;stroke-width:1;"/><polygon fill="#E7E7E7" points="356.53,924.42,353.0484,915.207,353.0153,920.8638,347.3585,920.8306,356.53,924.42" style="stroke:#E7E7E7;stroke-width:1;"/><text fill="#FFFFFF" font-family="sans-serif" font-size="13" lengthAdjust="spacing" textLength="101.7339" x="326.5" y="891.4284">[centroid exists]</text></g><!--link AssignCentroid to ComputeDistances--><g class="link" data-entity-1="AssignCentroid" data-entity-2="ComputeDistances" data-source-line="48" data-uid="lnk12" id="link_AssignCentroid_ComputeDistances"><path d="M207.32,975.77 C222.97,993.83 240.1898,1013.7064 255.8198,1031.7364" fill="none" id="AssignCentroid-to-ComputeDistances" style="stroke:#E7E7E7;stroke-width:1;"/><polygon fill="#E7E7E7" points="259.75,1036.27,256.8772,1026.8494,256.4749,1032.492,250.8323,1032.0897,259.75,1036.27" style="stroke:#E7E7E7;stroke-width:1;"/></g><!--link ComputeCentroid to ComputeDistances--><g class="link" data-entity-1="ComputeCentroid" data-entity-2="ComputeDistances" data-source-line="49" data-uid="lnk13" id="link_ComputeCentroid_ComputeDistances"><path d="M358.56,975.77 C342.09,993.83 323.864,1013.8076 307.414,1031.8376" fill="none" id="ComputeCentroid-to-ComputeDistances" style="stroke:#E7E7E7;stroke-width:1;"/><polygon fill="#E7E7E7" points="303.37,1036.27,312.3909,1032.3174,306.74,1032.5763,306.481,1026.9254,303.37,1036.27" style="stroke:#E7E7E7;stroke-width:1;"/></g><!--link ComputeDistances to ComputeDrift--><g class="link" data-entity-1="ComputeDistances" data-entity-2="ComputeDrift" data-source-line="50" data-uid="lnk14" id="link_ComputeDistances_ComputeDrift"><path d="M281,1087.39 C281,1105.45 281,1123.86 281,1141.9" fill="none" id="ComputeDistances-to-ComputeDrift" style="stroke:#E7E7E7;stroke-width:1;"/><polygon fill="#E7E7E7" points="281,1147.9,285,1138.9,281,1142.9,277,1138.9,281,1147.9" style="stroke:#E7E7E7;stroke-width:1;"/></g><!--link ComputeDrift to ComputeCoherence--><g class="link" data-entity-1="ComputeDrift" data-entity-2="ComputeCoherence" data-source-line="51" data-uid="lnk15" id="link_ComputeDrift_ComputeCoherence"><path d="M281,1199.02 C281,1217.07 281,1235.48 281,1253.52" fill="none" id="ComputeDrift-to-ComputeCoherence" style="stroke:#E7E7E7;stroke-width:1;"/><polygon fill="#E7E7E7" points="281,1259.52,285,1250.52,281,1254.52,277,1250.52,281,1259.52" style="stroke:#E7E7E7;stroke-width:1;"/></g><!--link ComputeCoherence to ComputeAffect--><g class="link" data-entity-1="ComputeCoherence" data-entity-2="ComputeAffect" data-source-line="52" data-uid="lnk16" id="link_ComputeCoherence_ComputeAffect"><path d="M281,1310.64 C281,1328.69 281,1347.1 281,1365.14" fill="none" id="ComputeCoherence-to-ComputeAffect" style="stroke:#E7E7E7;stroke-width:1;"/><polygon fill="#E7E7E7" points="281,1371.14,285,1362.14,281,1366.14,277,1362.14,281,1371.14" style="stroke:#E7E7E7;stroke-width:1;"/></g><!--link ComputeAffect to BoundaryCheck--><g class="link" data-entity-1="ComputeAffect" data-entity-2="BoundaryCheck" data-source-line="53" data-uid="lnk17" id="link_ComputeAffect_BoundaryCheck"><path d="M281,1422.46 C281,1441.74 281,1461.62 281,1476.37" fill="none" id="ComputeAffect-to-BoundaryCheck" style="stroke:#E7E7E7;stroke-width:1;"/><polygon fill="#E7E7E7" points="281,1482.37,285,1473.37,281,1477.37,277,1473.37,281,1482.37" style="stroke:#E7E7E7;stroke-width:1;"/></g><!--link BoundaryCheck to *end*Hippocampus--><g class="link" data-entity-1="BoundaryCheck" data-entity-2=".end.Hippocampus" data-source-line="54" data-uid="lnk19" id="link_BoundaryCheck_.end.Hippocampus"><path d="M287.43,1500.71 C296.77,1507.82 314.24,1522.01 326,1536.97 C341.87,1557.16 352.4934,1579.1794 358.6934,1593.4094" fill="none" id="BoundaryCheck-to-*end*Hippocampus" style="stroke:#E7E7E7;stroke-width:1;"/><polygon fill="#E7E7E7" points="361.09,1598.91,361.1622,1589.0614,359.0928,1594.3262,353.8281,1592.2569,361.09,1598.91" style="stroke:#E7E7E7;stroke-width:1;"/><text fill="#FFFFFF" font-family="sans-serif" font-size="13" lengthAdjust="spacing" textLength="88.3975" x="338.44" y="1550.5384">[no boundary]</text></g><!--link BoundaryCheck to ComputePersistence--><g class="link" data-entity-1="BoundaryCheck" data-entity-2="ComputePersistence" data-source-line="55" data-uid="lnk20" id="link_BoundaryCheck_ComputePersistence"><path d="M270.48,1497.09 C250.66,1499.84 208.15,1508.88 190,1536.97 C181.15,1550.65 181.584,1563.2317 185.684,1577.8917" fill="none" id="BoundaryCheck-to-ComputePersistence" style="stroke:#E7E7E7;stroke-width:1;"/><polygon fill="#E7E7E7" points="187.3,1583.67,188.7281,1573.9252,185.9533,1578.8548,181.0238,1576.0799,187.3,1583.67" style="stroke:#E7E7E7;stroke-width:1;"/><text fill="#FFFFFF" font-family="sans-serif" font-size="13" lengthAdjust="spacing" textLength="126.8198" x="191" y="1550.5384">[boundary detected]</text></g><!--link ComputePersistence to IsFull--><g class="link" data-entity-1="ComputePersistence" data-entity-2="IsFull" data-source-line="65" data-uid="lnk21" id="link_ComputePersistence_IsFull"><path d="M197,1635.08 C197,1659.25 197,1688.91 197,1707.06" fill="none" id="ComputePersistence-to-IsFull" style="stroke:#E7E7E7;stroke-width:1;"/><polygon fill="#E7E7E7" points="197,1713.06,201,1704.06,197,1708.06,193,1704.06,197,1713.06" style="stroke:#E7E7E7;stroke-width:1;"/></g><!--link IsFull to Store--><g class="link" data-entity-1="IsFull" data-entity-2="Store" data-source-line="66" data-uid="lnk22" id="link_IsFull_Store"><path d="M204.3,1730.59 C228.33,1743.75 301.118,1783.627 351.658,1811.317" fill="none" id="IsFull-to-Store" style="stroke:#E7E7E7;stroke-width:1;"/><polygon fill="#E7E7E7" points="356.92,1814.2,350.949,1806.3676,352.535,1811.7975,347.105,1813.3836,356.92,1814.2" style="stroke:#E7E7E7;stroke-width:1;"/><text fill="#FFFFFF" font-family="sans-serif" font-size="13" lengthAdjust="spacing" textLength="24.5083" x="300.5" y="1781.1584">[no]</text></g><!--link IsFull to EvictMemory--><g class="link" data-entity-1="IsFull" data-entity-2="EvictMemory" data-source-line="67" data-uid="lnk23" id="link_IsFull_EvictMemory"><path d="M194.87,1735.78 C190.94,1752.75 183.7849,1783.695 178.0549,1808.415" fill="none" id="IsFull-to-EvictMemory" style="stroke:#E7E7E7;stroke-width:1;"/><polygon fill="#E7E7E7" points="176.7,1814.26,182.629,1806.3957,177.829,1809.3891,174.8356,1804.5892,176.7,1814.26" style="stroke:#E7E7E7;stroke-width:1;"/><text fill="#FFFFFF" font-family="sans-serif" font-size="13" lengthAdjust="spacing" textLength="29.1167" x="188.09" y="1781.1584">[yes]</text></g><!--link EvictMemory to IsLongTerm--><g class="link" data-entity-1="EvictMemory" data-entity-2="IsLongTerm" data-source-line="68" data-uid="lnk24" id="link_EvictMemory_IsLongTerm"><path d="M207.57,1865.7 C241.26,1888.55 283.6344,1917.292 301.1644,1929.182" fill="none" id="EvictMemory-to-IsLongTerm" style="stroke:#E7E7E7;stroke-width:1;"/><polygon fill="#E7E7E7" points="306.13,1932.55,300.927,1924.1877,301.992,1929.7434,296.4363,1930.8084,306.13,1932.55" style="stroke:#E7E7E7;stroke-width:1;"/></g><!--link IsLongTerm to Neocortex--><g class="link" data-entity-1="IsLongTerm" data-entity-2="Neocortex" data-source-line="69" data-uid="lnk25" id="link_IsLongTerm_Neocortex"><path d="M319.27,1944.17 C322.12,1946.24 325.61,1948.56 329,1950.21 C404.3,1986.87 490.0363,2012.6264 556.4163,2029.5664" fill="none" id="IsLongTerm-to-Neocortex" style="stroke:#E7E7E7;stroke-width:1;"/><polygon fill="#E7E7E7" points="562.23,2031.05,554.4986,2024.9488,557.3853,2029.8136,552.5204,2032.7003,562.23,2031.05" style="stroke:#E7E7E7;stroke-width:1;"/><text fill="#FFFFFF" font-family="sans-serif" font-size="13" lengthAdjust="spacing" textLength="29.1167" x="441.93" y="1993.7784">[yes]</text></g><!--link IsLongTerm to *end*PrefrontalCortex--><g class="link" data-entity-1="IsLongTerm" data-entity-2=".end.PrefrontalCortex" data-source-line="70" data-uid="lnk27" id="link_IsLongTerm_.end.PrefrontalCortex"><path d="M309.04,1946.81 C305.09,1954.86 299.29,1968.04 297,1980.21 C292.78,2002.65 299.9388,2023.318 306.0288,2036.858" fill="none" id="IsLongTerm-to-*end*PrefrontalCortex" style="stroke:#E7E7E7;stroke-width:1;"/><polygon fill="#E7E7E7" points="308.49,2042.33,308.4462,2032.4812,306.439,2037.77,301.1502,2035.7628,308.49,2042.33" style="stroke:#E7E7E7;stroke-width:1;"/><text fill="#FFFFFF" font-family="sans-serif" font-size="13" lengthAdjust="spacing" textLength="24.5083" x="298" y="1993.7784">[no]</text></g><!--link Neocortex to Store--><g class="link" data-entity-1="Neocortex" data-entity-2="Store" data-source-line="71" data-uid="lnk28" id="link_Neocortex_Store"><path d="M622.63,2026.78 C574.46,1986.19 483.7983,1909.8162 435.7583,1869.3362" fill="none" id="Neocortex-to-Store" style="stroke:#E7E7E7;stroke-width:1;"/><polygon fill="#E7E7E7" points="431.17,1865.47,435.4749,1874.3282,434.9936,1868.6919,440.6299,1868.2105,431.17,1865.47" style="stroke:#E7E7E7;stroke-width:1;"/></g><!--link ModalityCheck to VisualCortex--><g class="link" data-entity-1="ModalityCheck" data-entity-2="VisualCortex" data-source-line="77" data-uid="lnk29" id="link_ModalityCheck_VisualCortex"><path d="M405.82,240.75 C401.37,260.04 392.4613,298.6441 385.9913,326.6341" fill="none" id="ModalityCheck-to-VisualCortex" style="stroke:#E7E7E7;stroke-width:1;"/><polygon fill="#E7E7E7" points="384.64,332.48,390.5642,324.6121,385.7661,327.6085,382.7697,322.8104,384.64,332.48" style="stroke:#E7E7E7;stroke-width:1;"/><text fill="#FFFFFF" font-family="sans-serif" font-size="13" lengthAdjust="spacing" textLength="78.5459" x="396.24" y="299.1884">[vision, text]</text></g><!--link ModalityCheck to AudioCortex--><g class="link" data-entity-1="ModalityCheck" data-entity-2="AudioCortex" data-source-line="78" data-uid="lnk30" id="link_ModalityCheck_AudioCortex"><path d="M414.67,236.04 C427.82,245.4 457.99,266.98 483,285.62 C503.56,300.94 521.6633,314.78 539.5633,328.62" fill="none" id="ModalityCheck-to-AudioCortex" style="stroke:#E7E7E7;stroke-width:1;"/><polygon fill="#E7E7E7" points="544.31,332.29,539.6367,323.6205,540.3544,329.2316,534.7433,329.9494,544.31,332.29" style="stroke:#E7E7E7;stroke-width:1;"/><text fill="#FFFFFF" font-family="sans-serif" font-size="13" lengthAdjust="spacing" textLength="43.6274" x="504.53" y="299.1884">[audio]</text></g><!--link VisualCortex to Amygdala--><g class="link" data-entity-1="VisualCortex" data-entity-2="Amygdala" data-source-line="80" data-uid="lnk31" id="link_VisualCortex_Amygdala"><path d="M401.24,383.59 C414.71,397.92 432.61,415.91 450,430.24 C462.68,440.68 472.3582,447.7113 485.7282,456.5113" fill="none" id="VisualCortex-to-Amygdala" style="stroke:#E7E7E7;stroke-width:1;"/><polygon fill="#E7E7E7" points="490.74,459.81,485.4214,451.5207,486.5635,457.0611,481.0231,458.2031,490.74,459.81" style="stroke:#E7E7E7;stroke-width:1;"/><text fill="#FFFFFF" font-family="sans-serif" font-size="13" lengthAdjust="spacing" textLength="91.2349" x="451" y="426.8084">EncodedSignal</text></g><!--link AudioCortex to Amygdala--><g class="link" data-entity-1="AudioCortex" data-entity-2="Amygdala" data-source-line="81" data-uid="lnk32" id="link_AudioCortex_Amygdala"><path d="M567.22,383.45 C559.29,405.58 549.7034,432.3315 541.7834,454.4415" fill="none" id="AudioCortex-to-Amygdala" style="stroke:#E7E7E7;stroke-width:1;"/><polygon fill="#E7E7E7" points="539.76,460.09,546.5607,452.9661,541.4461,455.3829,539.0293,450.2683,539.76,460.09" style="stroke:#E7E7E7;stroke-width:1;"/><text fill="#FFFFFF" font-family="sans-serif" font-size="13" lengthAdjust="spacing" textLength="91.2349" x="557.19" y="426.8084">EncodedSignal</text></g><!--link Amygdala to PrefrontalCortex--><g class="link" data-entity-1="Amygdala" data-entity-2="PrefrontalCortex" data-source-line="82" data-uid="lnk33" id="link_Amygdala_PrefrontalCortex"><path d="M531,511.21 C531,521.53 531,534.1988 531,547.4352 C531,554.0534 531,560.8135 531,567.4929 C531,570.8326 531,574.1521 531,577.4236 C531,578.2415 531,579.0563 531,579.8678 C531,580.2735 531,580.6784 531,581.0823 C531,581.2843 531,575.486 531,575.6875" fill="none" id="Amygdala-to-PrefrontalCortex" style="stroke:#E7E7E7;stroke-width:1;"/><polygon fill="#E7E7E7" points="531,581.6875,535,572.6875,531,576.6875,527,572.6875,531,581.6875" style="stroke:#E7E7E7;stroke-width:1;"/><text fill="#FFFFFF" font-family="sans-serif" font-size="13" lengthAdjust="spacing" textLength="89.7114" x="532" y="554.4284">EmotionSignal</text></g><!--SRC=[ZLPDRzim3BtxL-Yqmx1qzw8eq7KTLc0T0dJO9V11jHX7goqQafpM6_RVHqgnBINEq5CYyl697ozYtBCsdRIo5IqQh7OMMn0Mzc0T5CNcVIbMgsjnYzR3gx-uDrtlnQK8du-wDh8f2kUbXn4Y_XH2H4i4Nrs1yNPOepR- -dfotg9ns6Z5tyz07b39HllXTWVLCu6g7UeA5ZaqchN52fmho1ilvhmp2lAajyQw5XZ4efcg3bcAZw9gUkV1YdV2zMqhhVuDeeKMhOPmVypkftQzR69Ro9WU4oum5IeGU-teAcBa7iuSDxtIE54afrC6oSuaiXrggbrosE5h4jDP_0ML5z0-WLBQr0ADHpeYLonS9okOkTOMjfO0K_eyur4QNtNNOINRhazgJum1F4sC4q2j5aOw9UuSwMe41aTkIihGHdjD0wR-Lsd0A0-wtqD6TMHBkFekgE8ypsTDHqDII8acOogFw18g2yYvhDxwZ8SDInmJCAy9Ts1fy90LDHeNUAei8EEwsMv92YbHj2Giigujr1mZPt16igRtWiezJYanfuhTowRduEueAb9-mjueQKz_zm4pFKcfbEATcRWOSoASpJXUadhdX_9CtAbAai1NojYLIy9CGXV5ycRWhAeKkQoPDD__go91dfqvOxB-1qm-4SRm5AWh1iNJmLUUGIugOJD62GMUxWN5uN_d1-JUVUcRPkdHlzlhoZ_mQpkGBJbb0YEhm4Q1y_5b7XBcRsZg7s3R9VP7ZvRR5puJHXVEseWNjC_yNXvOYqMfSzsn0jv6iHIsZQpKjpBtv7Li1WWAIwsHSymzH4-5iEyxO3MkXZ7-238DZNqpViei7y44oC2NeY7AbMVEs8FG6rc7VP6lR2O-MdkRkEW-X3rNBaRaMsuJzbfP76_GbS8Nm-XvkTs5HQWEVqloTVaM-EWQiIThZsBYWZp4KBCCKgUihdVyN3u2FxJXRz0AdtZ1kekkRnknHIlyqD5p3jkmi-Z_HV4F]--></g></svg>